# xmcd
#
# Track frame offsets:
#	150
#	10265
#	19631
#	31512
#	44680
#	55582
#	69825
#	79537
#	91706
#	99306
#	111629
#	131651
#	140288
#	151555
#	170809
#	181385
#	190348
#	203439
#	217106
#	229487
#
# Disc length: 3188 seconds
#
# Revision: 0
# Processed by: cddbd v1.5.2PL0 Copyright (c) Steve Scherf et al.
# Submitted via: audiograbber 1.83.01
#
DISCID=010c7214
DTITLE=Various Artist - Country Hits CD 1
DYEAR=1900
DGENRE=Country
TTITLE0=Anne Murray - It's All Over
TTITLE1=Don Williams - Appartment 9
TTITLE2=Bob Wills - Bob Wills Waltz
TTITLE3=Barbara Mandrell - Don't Touch Me
TTITLE4=Conway Twitty - Have I Been Away Too Long
TTITLE5=Bonnie Taylor - Naturally
TTITLE6=Freddy Fender - But I Do
TTITLE7=Kitty Wells - Loneley Side Of Town
TTITLE8=Glen Yarborough - Lonesome Valley
TTITLE9=George Jones - Blue Side Of Lonesome
TTITLE10=Tanya Tucker - Delta Dawn
TTITLE11=Mel Tillis - I Got The Hoss
TTITLE12=Gene Watson - Memories To Burn
TTITLE13=Tina Turner - Lovin' Him Was Easier
TTITLE14=Willie Nelson - Blame It On The Timesq
TTITLE15=Porter Wagoner - Can You Tell Me?
TTITLE16=Gibbs, Terri Gibbs - Now I Lay Me Down To Sleep
TTITLE17=Atlanta - Can t You Hear
TTITLE18=Nitty Gritty Dirt Band - High Horse
TTITLE19=Willie Nelson - Ashamed
EXTD=
EXTT0=
EXTT1=
EXTT2=
EXTT3=
EXTT4=
EXTT5=
EXTT6=
EXTT7=
EXTT8=
EXTT9=
EXTT10=
EXTT11=
EXTT12=
EXTT13=
EXTT14=
EXTT15=
EXTT16=
EXTT17=
EXTT18=
EXTT19=
PLAYORDER=
